<svg data-v-0dd9719b="" version="1.0" xmlns="http://www.w3.org/2000/svg" xmlns:xlink="http://www.w3.org/1999/xlink" width="100%" height="100%" viewBox="0 0 340.000000 250.000000" preserveAspectRatio="xMidYMid meet" color-interpolation-filters="sRGB" style="margin: auto;"> <rect data-v-0dd9719b="" x="0" y="0" width="100%" height="100%" fill="#fff" fill-opacity="1" class="background"></rect> <rect data-v-0dd9719b="" x="0" y="0" width="100%" height="100%" fill="url(#watermark)" fill-opacity="1" class="watermarklayer"></rect> <g data-v-0dd9719b="" fill="#333" class="icon-text-wrapper icon-svg-group iconsvg" transform="translate(50.08000183105469,98.96149635336211)"><g class="iconsvg-imagesvg" transform="translate(0,0)"><g><rect fill="#333" fill-opacity="0" stroke-width="2" x="0" y="0" width="60" height="52.0770045306994" class="image-rect"></rect> <svg x="0" y="0" width="60" height="52.0770045306994" filtersec="colorsb3644329779" class="image-svg-svg primary" style="overflow: visible;"><svg xmlns="http://www.w3.org/2000/svg" viewBox="0.01035265438258648 -0.006200313568115234 131.36354064941406 114.0174789428711"><path d="M50 81.69c.91 0 1.49-.08 2.07-.08h38.28a2.4 2.4 0 0 0 2.39-1.39q9.36-16.32 18.81-32.61c.4-.68.84-1.34 1.44-2.3 1.64 2.83 3.21 5.36 4.54 8 .24.47-.38 1.48-.76 2.15-6 10.48-12.17 20.91-18.09 31.45-1.28 2.28-2.53 3.3-5.31 3.25-12.1-.2-24.2-.12-36.3-.06a3.14 3.14 0 0 1-3.34-1.88c-1.08-2.14-2.39-4.17-3.73-6.53z" fill="#188bff"></path><path d="M57.91 41.32c-.37.74-.61 1.28-.9 1.79C50.67 54.06 44.36 65 38 75.93a2.89 2.89 0 0 0 0 3.32q9.47 16.27 18.84 32.59c.33.57.65 1.14 1.06 1.87a7.82 7.82 0 0 1-1.24.21c-2.33 0-4.66 0-7 .08a2 2 0 0 1-2.05-1.2q-8-14-16.06-27.88c-1.18-2.06-2.34-4.14-3.6-6.16a2 2 0 0 1 0-2.34q9.73-16.74 19.36-33.52a2.85 2.85 0 0 1 3-1.72c2 .12 4 0 5.92 0 .47.03.96.09 1.68.14z" fill="#8fc321"></path><path d="M39.05 8.54a28.1 28.1 0 0 0 2.18-4C42.56.77 45.1-.09 49 0c11.84.31 23.69.14 35.54.1a2.07 2.07 0 0 1 2 1.2q9.81 17 19.62 34.07a2.12 2.12 0 0 1 .28 1.66c-1.34 2.54-2.82 5-4.41 7.78-.44-.65-.76-1.06-1-1.5Q91.45 26.67 81.87 10a2.65 2.65 0 0 0-2.65-1.51H41.55z" fill="#fb941c" opacity=".6"></path><path d="M88.2 68.82c-1.86-3.18-3.51-6-5.14-8.84Q75.45 46.83 67.9 33.66a2.05 2.05 0 0 0-2.05-1.16h-38.9c-.4 0-.8 0-1.43-.09a8.14 8.14 0 0 1 .48-1.28c1.11-2 2.18-4 3.42-5.91a2.65 2.65 0 0 1 1.86-1.13q19.83-.09 39.65 0a2.41 2.41 0 0 1 1.77 1q10 17.13 19.81 34.32a1.88 1.88 0 0 1 .2 1.51c-1.38 2.55-2.85 5.08-4.51 7.9z" fill="#fb941c"></path><path d="M119.8 57.32c1.65 2.84 3.17 5.38 4.6 8 .16.28-.06.87-.27 1.23q-10 17.3-20 34.55a2.41 2.41 0 0 1-1.79 1H63.01a2 2 0 0 1-2.05-1.2c-1.09-2-2.27-4-3.39-5.93a12.76 12.76 0 0 1-.57-1.23c.67 0 1.15-.09 1.63-.09 12.61 0 25.21-.05 37.82 0a3.37 3.37 0 0 0 3.42-2Q109.24 75.31 118.7 59c.3-.46.62-.94 1.1-1.68z" fill="#188bff" opacity=".8"></path><path d="M126.77 69.23c1.65 2.86 3.17 5.4 4.55 8 .2.36-.2 1.14-.49 1.64q-8.16 14.22-16.38 28.41c-1.06 1.84-2 3.73-3.21 5.5a2.67 2.67 0 0 1-1.86 1.13q-19.74.1-39.49 0c-.51 0-1.27-.14-1.48-.48-1.54-2.47-3-5-4.61-7.82 1.11-.06 1.89-.13 2.67-.13h37.51a2.65 2.65 0 0 0 2.63-1.53q9.49-16.61 19.1-33.14c.29-.37.57-.81 1.06-1.58z" fill="#188bff" opacity=".6"></path><path d="M44.26 41.2C37.42 53 30.84 64.46 24.21 75.85a2.85 2.85 0 0 0 0 3.31c6.42 11 12.77 22.07 19.14 33.11.25.43.46.88.87 1.66a53.72 53.72 0 0 0-6.25 0c-2.59.31-3.9-.71-5.16-3-6-10.72-12.22-21.32-18.41-31.94a2.65 2.65 0 0 1 0-3q9.47-16.29 18.84-32.7c.88-1.54 1.82-2.29 3.67-2.14 2.3.19 4.63.05 7.35.05z" fill="#8fc321" opacity=".8"></path><path d="M30.32 41.23c-.42.85-.63 1.35-.9 1.81Q19.91 59.55 10.35 76a2.61 2.61 0 0 0 0 3q9.75 16.8 19.42 33.66c.17.29.29.6.6 1.24-2.5 0-4.76-.13-7 0a3.63 3.63 0 0 1-3.91-2.19C13.16 100.72 6.75 89.7.35 78.67a2 2 0 0 1 0-2.23q9.92-17.07 19.79-34.15c.25-.44.76-1 1.16-1 2.87-.1 5.75-.06 9.02-.06z" fill="#8fc321" opacity=".6"></path><path d="M32.21 20.51c1.66-2.91 3-5.43 4.52-7.88a2 2 0 0 1 1.46-.54c13.22 0 26.43-.05 39.65 0a2.45 2.45 0 0 1 1.78 1q10 17.11 19.84 34.29c.23.39.46 1 .29 1.36-1.4 2.61-2.9 5.17-4.52 8-.45-.67-.74-1.06-1-1.47C87.85 44.23 81.42 33.15 75.06 22a2.6 2.6 0 0 0-2.61-1.54h-38z" fill="#fb941c" opacity=".8"></path></svg></svg> <!----></g></g> <g transform="translate(67,2.0372543334960938)"><g data-gra="path-name" fill-rule="" class="tp-name iconsvg-namesvg" transform="translate(0,0)"><g transform="scale(1)"><g><path d="M24.41-16.81L24.41-16.81Q25.52-12.13 26.91-9.07 28.3-6.01 29.93-4.27 31.57-2.52 32.02-2.52 32.47-2.52 32.83-3.11 33.19-3.71 34.06-5.96 34.92-8.21 35.28-8.21L35.28-8.21Q35.46-8.21 35.46-7.45 35.46-6.7 35.35-5.54 35.24-4.39 35.24-3.31L35.24-3.31Q35.24-0.72 35.78 0.68L35.78 0.68Q36.04 1.33 36.04 1.87L36.04 1.87Q36.04 2.95 34.92 2.95 33.8 2.95 31.81 2 29.81 1.04 28.33-0.58 26.86-2.2 25.54-4.68 24.23-7.16 23.42-9.29 22.61-11.41 21.56-16.2L21.56-16.2Q18.58-15.55 16.63-14.98L16.63-14.98Q17.68-14.54 18.16-14.2 18.65-13.86 18.65-13.48 18.65-13.1 18.34-12.67 18.04-12.24 17.96-11.88L17.96-11.88Q19.76-12.6 20.36-12.6 20.95-12.6 21.46-12.31 21.96-12.02 21.96-11.5 21.96-10.98 20.81-10.42 19.66-9.86 17.82-9.97L17.82-9.97 17.68-6.05Q20.74-6.95 21.96-6.95L21.96-6.95Q22.5-6.95 22.5-6.73L22.5-6.73Q22.5-6.05 16.81-3.56L16.81-3.56Q13.28-2.05 12.01-1.4 10.73-0.76 10.08-0.11 9.43 0.54 9.11 0.74 8.78 0.94 8.5 0.94L8.5 0.94Q7.85 0.94 6.17-0.58 4.5-2.09 4.5-2.52 4.5-2.95 5.09-3.11 5.69-3.28 6.86-3.28 8.03-3.28 10.15-3.85L10.15-3.85Q10.19-9.58 9.47-10.4L9.47-10.4Q8.57-11.41 8.57-11.93 8.57-12.46 9.36-12.46 10.15-12.46 12.02-11.75 13.9-11.05 13.9-10.33L13.9-10.33Q13.9-10.01 13.55-9.47 13.21-8.93 13.1-8.12 13-7.31 12.85-4.61L12.85-4.61Q14.08-4.97 14.72-5.18L14.72-5.18Q14.87-8.35 14.87-10.8 14.87-13.25 14.29-14.22L14.29-14.22Q13.46-13.93 11.83-13.21 10.19-12.49 9.36-12.49 8.53-12.49 7.24-13.46 5.94-14.44 5.94-14.8 5.94-15.16 7.25-15.16 8.57-15.16 12.55-15.97 16.52-16.78 21.2-18.04L21.2-18.04 20.12-23.33Q19.51-26.17 18.65-26.86L18.65-26.86Q17.39-27.79 17.39-28.33 17.39-28.87 18.45-28.87 19.51-28.87 21.01-28.6 22.5-28.33 23.2-28.01 23.9-27.68 23.9-27.18 23.9-26.68 23.63-26.1 23.36-25.52 23.36-24.55L23.36-24.55Q23.36-22.21 24.01-18.86L24.01-18.86Q26.35-20.02 27.25-20.02 28.15-20.02 28.98-19.49 29.81-18.97 29.81-18.5L29.81-18.5Q29.81-17.78 28.15-17.51 26.5-17.24 24.41-16.81ZM27.79-26.17L27.79-26.17Q29.99-26.17 30.6-25.09 31.21-24.01 31.21-23.04L31.21-23.04Q31.21-21.6 30.06-21.6L30.06-21.6Q28.98-21.6 26.87-23.31 24.77-25.02 24.77-25.56L24.77-25.56Q24.77-26.17 27.79-26.17ZM17.96-22.57L17.96-22.57Q18.68-22.57 19.39-22.23 20.09-21.89 20.09-21.46L20.09-21.46Q20.09-20.66 17.37-19.71 14.65-18.76 13-18.76L13-18.76Q12.02-18.76 11.09-19.26 10.15-19.76 10.15-20.14 10.15-20.52 11.48-20.59L11.48-20.59Q12.06-20.63 13.27-20.97 14.47-21.31 15.73-21.94 16.99-22.57 17.96-22.57ZM43.99-24.44L43.99-24.44Q46.37-24.44 47.39-23.69 48.42-22.93 48.42-21.35L48.42-21.35Q48.42-20.45 48.06-19.96 47.7-19.48 47.09-19.48L47.09-19.48Q45.86-19.48 44.23-21.4 42.59-23.33 42.59-23.98L42.59-23.98Q42.59-24.44 43.99-24.44ZM60.16-9.04L60.16-9.04Q61.88-7.13 64.24-5.62 66.6-4.1 71.14-2.38L71.14-2.38Q72.54-1.84 72.54-1.37L72.54-1.37Q72.54-1.12 72.09-0.92 71.64-0.72 68.98-0.49 66.31-0.25 65.12-0.25L65.12-0.25Q63.04-0.25 62.24-0.81 61.45-1.37 61.24-1.66L61.24-1.66 57.96-6.16Q55.58-3.6 52.81-2.5 50.04-1.4 47.66-1.4L47.66-1.4Q46.4-1.4 46.4-1.82 46.4-2.23 47.59-2.7L47.59-2.7Q49.93-3.6 52.24-5.27 54.54-6.95 56.12-8.93L56.12-8.93Q53.32-13.25 52.38-14.4 51.44-15.55 50.24-16 49.03-16.45 49.03-16.99L49.03-16.99Q49.03-17.35 49.68-17.6 50.33-17.86 51.73-17.86 53.14-17.86 53.93-17.24 54.72-16.63 55.67-15.03 56.63-13.43 57.85-11.81L57.85-11.81Q59.26-14.65 59.81-16.96 60.37-19.26 60.37-19.75 60.37-20.23 60.12-20.23 59.87-20.23 58.72-20.03 57.56-19.84 55.57-19.26 53.57-18.68 52.87-18.68 52.16-18.68 51.14-19.49 50.11-20.3 50.11-20.59 50.11-20.88 51.48-20.95L51.48-20.95Q54.25-21.1 57.02-21.85 59.8-22.61 60.77-23.58L60.77-23.58Q61.31-24.12 61.94-24.12 62.57-24.12 64.64-22.99 66.71-21.85 66.71-21.17L66.71-21.17Q66.71-20.7 65.63-20 64.55-19.3 63.61-16.45L63.61-16.45Q62.21-12.06 60.16-9.04ZM41.47-17.35L41.47-17.35Q43.27-17.35 44.57-16.76 45.86-16.16 45.86-14.47L45.86-14.47Q45.86-13.39 45.49-12.76 45.11-12.13 44.59-12.13 44.06-12.13 43.65-12.46 43.24-12.78 42.26-13.77 41.29-14.76 40.73-15.57 40.18-16.38 40.18-16.87 40.18-17.35 41.47-17.35ZM49.1-14.69L49.1-14.69Q49.1-13.79 47.92-10.73L47.92-10.73Q44.82-2.92 44.6-0.32L44.6-0.32Q44.42 1.8 43.63 1.8 42.84 1.8 41.18-0.58 39.53-2.95 39.53-3.74 39.53-4.54 40.57-4.68 41.62-4.82 42.17-5.31 42.73-5.8 43.27-6.7L43.27-6.7Q46.91-12.71 47.79-13.86 48.67-15.01 48.89-15.01 49.1-15.01 49.1-14.69ZM93.2-22.97L93.2-22.97Q94.07-23 95.62-23.54L95.62-23.54Q99.65-24.95 100.55-24.95 101.45-24.95 102.33-24.55 103.21-24.16 103.21-23.58 103.21-23 101.92-22.54 100.62-22.07 98.17-21.67 95.72-21.28 94.45-21.28 93.17-21.28 92.09-21.56L92.09-21.56Q90.22-19.4 88.27-18.43 86.33-17.46 85.68-17.46L85.68-17.46Q85.46-17.46 85.46-17.64L85.46-17.64Q85.46-17.93 86.81-19.26 88.16-20.59 89.64-22.99 91.12-25.38 91.12-26.68L91.12-26.68Q91.12-26.96 90.95-27.32 90.79-27.68 90.79-28.12L90.79-28.12Q90.79-28.87 91.67-28.87 92.56-28.87 94.34-27.95 96.12-27.04 96.12-26.28L96.12-26.28Q96.12-25.85 95.42-25.45 94.72-25.06 93.2-22.97ZM79.99-25.7L79.99-25.7Q81.97-25.7 83.5-25.09 85.03-24.48 85.03-22.39 85.03-20.3 83.83-20.3 82.62-20.3 80.78-22.46 78.95-24.62 78.95-25.24L78.95-25.24Q78.95-25.7 79.99-25.7ZM101.92-13.5L101.92-13.5Q103.07-13.72 103.68-13.88 104.29-14.04 105.08-14.04L105.08-14.04Q106.63-14.04 107.59-12.98 108.54-11.92 108.54-11.36 108.54-10.8 107.03-10.8L107.03-10.8Q106.31-10.8 105.16-10.96 104-11.12 101.74-11.12L101.74-11.12Q101.56-8.57 101.27-6.23L101.27-6.23Q102.96-6.19 103.95-5.99 104.94-5.8 105.55-4.72 106.16-3.64 106.16-2.99L106.16-2.99Q106.16-2.12 105.26-2.12 104.36-2.12 103.23-2.59 102.1-3.06 100.87-3.38L100.87-3.38Q100.08 1.08 98.37 2.61 96.66 4.14 95.65 4.14L95.65 4.14Q94.86 4.14 94.64 2.92 94.43 1.69 92.77-0.11L92.77-0.11Q91.87-1.12 91.87-1.44 91.87-1.76 92.36-1.76 92.84-1.76 93.96-1.46 95.08-1.15 95.6-1.15 96.12-1.15 96.43-1.46 96.73-1.76 97.16-3.96L97.16-3.96Q95.29-4.21 92.9-4.21 90.5-4.21 89.33-3.98 88.16-3.74 87.14-3.06 86.11-2.38 85.68-2.38L85.68-2.38Q85-2.38 84.49-3.73 83.99-5.08 83.99-5.45 83.99-5.83 84.17-6.01 84.35-6.19 85.07-6.37 85.79-6.55 86.26-7.2 86.72-7.85 87.48-9.97L87.48-9.97Q86.8-9.83 86.44-9.74 86.08-9.65 85.82-9.65L85.82-9.65Q85.18-9.65 84.37-10.42 83.56-11.2 83.56-11.45L83.56-11.45Q83.56-11.81 84.53-11.81 85.5-11.81 88.13-11.95L88.13-11.95Q88.92-14.58 88.92-15.71 88.92-16.85 88.72-17.26 88.52-17.68 88.52-17.89L88.52-17.89Q88.52-18.4 89.24-18.4 89.96-18.4 91.08-18.11L91.08-18.11Q95.22-18.43 97.38-19.48L97.38-19.48Q98.39-19.98 99.11-19.98 99.83-19.98 101.61-18.85 103.39-17.71 103.39-16.99L103.39-16.99Q103.39-16.63 102.76-15.86 102.13-15.08 101.92-13.5ZM98.32-13L98.42-16.16Q98.46-17.06 97.34-17.06L97.34-17.06Q95.51-17.06 94.05-16.79 92.59-16.52 92.09-16.45L92.09-16.45Q91.73-14.33 91.12-12.2L91.12-12.2Q93.92-12.46 94.68-12.56L94.68-12.56Q94-12.67 93.46-13.63 92.92-14.58 92.92-15.62L92.92-15.62Q92.92-16.34 93.4-16.34 93.89-16.34 94.91-15.82 95.94-15.3 95.94-14.26L95.94-14.26Q95.94-13 95.11-12.6L95.11-12.6Q97.31-12.85 98.32-13L98.32-13ZM98.21-11.02L98.21-11.02Q95.22-10.8 90.5-10.3L90.5-10.3Q89.89-8.32 88.88-6.16L88.88-6.16 97.63-6.26Q97.99-7.99 98.21-11.02ZM95.26-8.1L95.26-8.1Q95.26-7.45 94.88-6.91 94.5-6.37 93.89-6.37 93.28-6.37 92.77-7.42 92.27-8.46 92.27-9.4 92.27-10.33 92.81-10.33 93.35-10.33 94.3-9.7 95.26-9.07 95.26-8.1ZM77.15-19.15L77.15-19.15Q78.98-19.15 79.96-18.83 80.93-18.5 81.25-17.6 81.58-16.7 81.58-15.91 81.58-15.12 81.23-14.69 80.89-14.26 80.28-14.26L80.28-14.26Q79.06-14.26 77.4-16.2 75.74-18.14 75.74-18.65 75.74-19.15 77.15-19.15ZM84.02-15.44L84.02-15.44Q84.02-14.65 83.2-12.35L83.2-12.35Q80.64-5.15 80.57-2.7 80.5-0.25 79.58-0.25 78.66-0.25 76.93-2.59 75.2-4.93 75.2-5.87L75.2-5.87Q75.2-6.7 76.68-6.77L76.68-6.77Q77.8-6.8 79.13-8.89L79.13-8.89 81.72-13.1Q83.34-15.8 83.84-15.8L83.84-15.8Q84.02-15.8 84.02-15.44ZM133.2-17.42L133.2-17.42Q136.26-17.14 138.24-16.76 140.22-16.38 141.26-15.88 142.31-15.37 142.72-14.72 143.14-14.08 143.51-13.05 143.89-12.02 143.89-11.3L143.89-11.3Q143.89-10.12 142.9-10.12 141.91-10.12 140.29-11.38L140.29-11.38Q136.76-14.15 133.2-15.91L133.2-15.91Q133.2-11.84 133.27-9.14L133.27-9.14 133.42-4.93Q133.49-3.46 133.49-1.91 133.49-0.36 132.91 1.31 132.34 2.99 131.56 2.99 130.79 2.99 129.89 1.51 128.99 0.04 128.99-0.94 128.99-1.91 129.71-3.67L129.71-3.67Q129.89-4.1 130-5.56 130.1-7.02 130.21-12.17 130.32-17.32 130.32-19.87L130.32-19.87Q130.32-25.7 129.49-26.69 128.66-27.68 128.66-28.3 128.66-28.91 129.55-28.91 130.43-28.91 132.46-28.22 134.5-27.54 134.5-26.57L134.5-26.57Q134.5-26.03 134.12-25.25 133.74-24.48 133.56-22.88 133.38-21.28 133.2-17.42ZM121.75-18.94L121.75-18.94Q123.3-19.12 124.78-20.16L124.78-20.16Q125.78-20.84 126.27-20.84 126.76-20.84 128.23-19.82 129.71-18.79 129.71-18.38 129.71-17.96 128.81-17.28 127.91-16.6 126.94-14.51L126.94-14.51Q124.74-9.68 121.86-6.91 118.98-4.14 115.96-2.72 112.93-1.3 112.07-1.3L112.07-1.3Q111.78-1.3 111.78-1.48L111.78-1.48Q111.78-1.98 114.12-3.67L114.12-3.67Q118.58-6.91 121.18-10.87L121.18-10.87Q119.77-11.2 117.47-14.18L117.47-14.18Q116.6-13.5 115.25-12.67 113.9-11.84 113.58-11.84 113.26-11.84 113.26-12.02L113.26-12.02Q113.26-12.49 115.09-14.51 116.93-16.52 118.42-19.22 119.92-21.92 119.92-23.08L119.92-23.08Q119.92-23.33 119.77-23.74 119.63-24.16 119.63-24.55L119.63-24.55Q119.63-25.34 120.46-25.34 121.28-25.34 123.07-24.23 124.85-23.11 124.85-22.52 124.85-21.92 123.97-21.38 123.08-20.84 121.75-18.94ZM122.4-12.89L122.4-12.89Q123.23-14.29 123.93-15.82 124.63-17.35 124.63-17.6 124.63-17.86 124.34-17.86 124.06-17.86 123.01-17.57 121.97-17.28 121.55-17.28 121.14-17.28 120.67-17.46L120.67-17.46Q119.56-16.02 118.44-14.98L118.44-14.98Q120.17-14.87 121.07-14.42 121.97-13.97 122.4-12.89ZM161.39-20.88L161.39-20.88Q164.23-21.06 167.18-21.78 170.14-22.5 171.13-23.15 172.12-23.8 172.6-23.8 173.09-23.8 174.53-22.88 175.97-21.96 176.65-21.4 177.34-20.84 177.34-20.45 177.34-20.05 176.81-19.39 176.29-18.72 176.04-17.73 175.79-16.74 175.82-15.62 175.86-14.51 175.86-11.88 175.86-9.25 175.61-5.85 175.36-2.45 175.03-0.95 174.71 0.54 173.95 1.58 173.2 2.63 172.4 3.2 171.61 3.78 171.07 3.78L171.07 3.78Q170.21 3.78 169.54 2.47 168.88 1.15 167.54-0.22 166.21-1.58 166.21-1.87 166.21-2.16 166.64-2.16 167.08-2.16 168.05-1.93 169.02-1.69 169.61-1.69 170.21-1.69 170.62-2.11 171.04-2.52 171.4-4.1 171.76-5.69 172.04-8.95 172.33-12.2 172.33-14.58 172.33-16.96 172.22-18.32 172.12-19.69 171.99-19.89 171.86-20.09 171.47-20.09L171.47-20.09Q167.69-20.09 164.09-19.3L164.09-19.3Q162.76-19.01 161.98-19.01 161.21-19.01 160.38-19.8L160.38-19.8Q159.37-18.83 157.36-17.75 155.34-16.67 155.11-16.67 154.87-16.67 154.87-16.78L154.87-16.78Q154.87-17.03 156.49-18.85 158.11-20.66 159.19-22.66 160.27-24.66 160.27-25.78L160.27-25.78Q160.27-25.99 160.09-26.59 159.91-27.18 159.91-27.72 159.91-28.26 160.49-28.26 161.06-28.26 162.94-27.32 164.81-26.39 164.81-25.7L164.81-25.7Q164.81-25.31 164.3-24.77L164.3-24.77Q163.12-23.51 162.5-22.5 161.89-21.49 161.39-20.88ZM151.74-24.52L151.74-24.52Q152.21-24.52 154.19-24.17 156.17-23.83 156.44-23.08 156.71-22.32 156.71-21.64 156.71-20.95 156.26-20.43 155.81-19.91 155.12-19.91L155.12-19.91Q154.04-19.91 152.48-21.69 150.91-23.47 150.91-23.99 150.91-24.52 151.74-24.52ZM164.41-12.31L164.41-12.31Q166.21-12.64 167.2-12.92 168.19-13.21 168.97-13.21 169.74-13.21 170.57-12.49 171.4-11.77 171.4-11.38L171.4-11.38Q171.4-10.84 169.92-10.84L169.92-10.84Q167.51-10.84 164.3-10.55L164.3-10.55 164.2-6.77 166.39-7.06Q166.28-7.92 165.87-8.64 165.46-9.36 165.46-9.76 165.46-10.15 166.07-10.15 166.68-10.15 168.05-9.81 169.42-9.47 169.42-8.75L169.42-8.75Q169.42-8.53 169.22-8.1 169.02-7.67 169.02-6.62L169.02-6.62 169.09-4.9Q169.09-3.89 168.61-3.24 168.12-2.59 167.51-2.59L167.51-2.59Q166.68-2.59 166.46-5.69L166.46-5.69Q163.44-5.18 161.46-4.63 159.48-4.07 157.75-3.13L157.75-3.13Q156.89-2.66 156.49-2.66 156.1-2.66 155.66-3.53 155.23-4.39 155.23-4.75L155.23-4.75Q155.23-5.29 155.88-5.49 156.53-5.69 156.85-6.23 157.18-6.77 157.18-7.22 157.18-7.67 157.03-8.03 156.89-8.39 156.89-8.8 156.89-9.22 157.39-9.22 157.9-9.22 158.78-8.71 159.66-8.21 159.66-7.51 159.66-6.8 159.05-5.94L159.05-5.94 161.53-6.41 161.57-10.26Q160.02-10.04 158.87-9.74 157.72-9.43 157.19-9.43 156.67-9.43 156.01-9.97 155.34-10.51 155.34-10.84 155.34-11.16 156.46-11.23L156.46-11.23Q158.94-11.45 161.6-11.84L161.6-11.84Q161.68-13.75 160.99-14.76L160.99-14.76Q160.56-14.83 160.42-14.9L160.42-14.9Q159.62-13.93 158.06-13.01 156.49-12.1 156.22-12.1 155.95-12.1 155.95-12.24L155.95-12.24Q155.95-12.49 157.03-13.9 158.11-15.3 158.51-16.11 158.9-16.92 158.85-17.37 158.8-17.82 158.8-18.04L158.8-18.04Q158.8-18.72 159.3-18.72 159.8-18.72 160.97-18.22 162.14-17.71 162.14-17.3 162.14-16.88 161.28-16.06L161.28-16.06Q162.79-16.06 165.64-17.46L165.64-17.46Q166.36-17.82 166.91-17.82 167.47-17.82 168.23-17.33 168.98-16.85 168.98-16.52 168.98-16.2 168.35-15.93 167.72-15.66 166.32-15.34 164.92-15.01 163.37-14.8L163.37-14.8Q164.2-14.62 164.59-14.44 164.99-14.26 164.99-13.97 164.99-13.68 164.77-13.27 164.56-12.85 164.41-12.31ZM148.46-17.89L148.46-17.89Q149.26-17.89 150.98-17.55 152.71-17.21 153.16-16.47 153.61-15.73 153.61-14.74 153.61-13.75 153.22-13.25 152.82-12.74 152.21-12.74L152.21-12.74Q151.16-12.74 149.44-14.81 147.71-16.88 147.71-17.5L147.71-17.5Q147.71-17.89 148.46-17.89ZM155.3-13.64L155.3-13.64Q155.3-12.85 154.12-8.78 152.93-4.72 152.39-2.59 151.85-0.47 151.61 0.09 151.38 0.65 151.02 0.65L151.02 0.65Q150.41 0.65 149.17-1.66 147.92-3.96 147.92-4.43 147.92-4.9 148.14-5.13 148.36-5.36 149.2-5.72 150.05-6.08 150.86-7.18 151.67-8.28 152.75-10.26L152.75-10.26Q154.73-13.97 155.16-13.97L155.16-13.97Q155.3-13.97 155.3-13.64Z" transform="translate(-4.5, 28.90999984741211)"></path></g> <!----> <!----> <!----> <!----> <!----> <!----> <!----></g></g> <g data-gra="path-slogan" fill-rule="" class="tp-slogan iconsvg-slogansvg" fill="#333" transform="translate(5,39.04999923706055)"><rect x="0" height="1" y="3.9750003814697266" width="20.974998474121094"></rect> <rect height="1" y="3.9750003814697266" width="20.974998474121094" x="141.86499786376953"></rect> <g transform="translate(23.974998474121094,0)"><g transform="scale(1)"><path d="M5.67-7.13L5.63-7.13L3.66 0L2.44 0L0.19-8.58L1.41-8.58L3.05-1.59L3.09-1.59L5.02-8.58L6.28-8.58L8.20-1.59L8.25-1.59L9.84-8.58L11.11-8.58L8.86 0L7.64 0L5.67-7.13ZM17.86-3.19L17.86-8.58L19.03-8.58L19.03-3.05Q18.89 0.05 15.52 0.14L15.52 0.14Q12.38 0.05 12.23-2.86L12.23-2.86L12.23-8.58L13.41-8.58L13.41-3.19Q13.45-0.84 15.56-0.80L15.56-0.80Q17.86-0.84 17.86-3.19L17.86-3.19ZM21.98-5.06L26.48-5.06L26.48-8.58L27.66-8.58L27.66 0L26.48 0L26.48-3.98L21.98-3.98L21.98 0L20.81 0L20.81-8.58L21.98-8.58L21.98-5.06ZM35.11 0L34.27-2.48L30.80-2.48L29.91 0L28.73 0L31.97-8.58L33.28-8.58L36.38 0L35.11 0ZM32.53-7.31L31.17-3.52L33.84-3.52L32.58-7.31L32.53-7.31ZM38.81-8.58L43.13-1.64L43.13-8.58L44.25-8.58L44.25 0L42.94 0L38.58-6.94L38.53-6.94L38.53 0L37.41 0L37.41-8.58L38.81-8.58ZM50.53-5.06L55.03-5.06L55.03-8.58L56.20-8.58L56.20 0L55.03 0L55.03-3.98L50.53-3.98L50.53 0L49.36 0L49.36-8.58L50.53-8.58L50.53-5.06ZM63.66 0L62.81-2.48L59.34-2.48L58.45 0L57.28 0L60.52-8.58L61.83-8.58L64.92 0L63.66 0ZM61.08-7.31L59.72-3.52L62.39-3.52L61.13-7.31L61.08-7.31ZM66.14-8.58L67.31-8.58L67.31 0L66.14 0L66.14-8.58ZM74.06-7.13L74.02-7.13L72.05 0L70.83 0L68.58-8.58L69.80-8.58L71.44-1.59L71.48-1.59L73.41-8.58L74.67-8.58L76.59-1.59L76.64-1.59L78.23-8.58L79.50-8.58L77.25 0L76.03 0L74.06-7.13ZM86.25 0L85.41-2.48L81.94-2.48L81.05 0L79.88 0L83.11-8.58L84.42-8.58L87.52 0L86.25 0ZM83.67-7.31L82.31-3.52L84.98-3.52L83.72-7.31L83.67-7.31ZM88.73-8.58L89.91-8.58L89.91 0L88.73 0L88.73-8.58ZM94.08-7.59L91.17-7.59L91.17-8.58L98.11-8.58L98.11-7.59L95.20-7.59L95.20 0L94.08 0L94.08-7.59ZM104.81 0L103.97-2.48L100.50-2.48L99.61 0L98.44 0L101.67-8.58L102.98-8.58L106.08 0L104.81 0ZM102.23-7.31L100.88-3.52L103.55-3.52L102.28-7.31L102.23-7.31ZM113.91-4.27L113.91-4.27Q113.72-7.64 110.91-7.83L110.91-7.83Q108.05-7.69 107.91-4.27L107.91-4.27Q108.05-0.94 110.91-0.80L110.91-0.80Q113.72-0.98 113.91-4.27ZM115.08-4.27L115.08-4.27Q114.80 0 110.91 0.14L110.91 0.14Q106.97 0 106.69-4.27L106.69-4.27Q106.92-8.72 110.91-8.81L110.91-8.81Q114.80-8.67 115.08-4.27Z" transform="translate(-0.1875, 8.8125)"></path></g></g></g></g></g><defs v-gra="od"></defs></svg>